<svg width="160" height="33" viewBox="0 0 160 33" fill="none" xmlns="http://www.w3.org/2000/svg">
<g clip-path="url(#clip0_1_652)">
<path d="M159.717 24.7494V28.7089H156.395C152.851 28.5975 150.957 26.6835 150.957 23.0886V14.0456H148.638V10.5722H150.957V6.68355H155.858V10.5316H159.605V13.9949H155.858V22.6025C155.858 23.7671 156.091 24.6987 157.884 24.6987L159.717 24.7494Z" fill="white"/>
<path d="M129.104 19.676V19.4127C129.051 18.248 129.228 17.0842 129.626 15.9882C130.023 14.8922 130.633 13.8854 131.421 13.0256C132.208 12.1657 133.158 11.4697 134.214 10.9775C135.271 10.4852 136.415 10.2064 137.58 10.157C137.813 10.157 138.056 10.157 138.289 10.157C142.917 10.157 146.977 12.8506 146.977 19.2709V20.638H134.117C134.248 23.5949 135.848 25.2658 138.542 25.2658C140.861 25.2658 141.944 24.2532 142.258 22.7747H146.886C146.319 26.6329 143.241 28.7798 138.37 28.7798C133.023 28.7392 129.104 25.357 129.104 19.676ZM142.157 17.5392C141.985 14.8456 140.628 13.5494 138.268 13.5494C135.909 13.5494 134.552 15.0076 134.218 17.5392H142.157Z" fill="white"/>
<path d="M109.094 19.676V19.4127C109.041 18.2496 109.217 17.0875 109.614 15.9927C110.01 14.898 110.618 13.8921 111.403 13.0325C112.189 12.1729 113.136 11.4765 114.19 10.9831C115.245 10.4897 116.386 10.209 117.549 10.157C117.782 10.157 118.025 10.157 118.258 10.157C122.886 10.157 126.957 12.8506 126.957 19.2709V20.638H114.106C114.238 23.5949 115.838 25.2658 118.532 25.2658C120.851 25.2658 121.934 24.2532 122.248 22.7747H126.876C126.299 26.6329 123.22 28.7798 118.349 28.7798C113.013 28.7392 109.094 25.357 109.094 19.676ZM122.147 17.5392C121.975 14.8456 120.618 13.5494 118.258 13.5494C115.899 13.5494 114.582 15.0481 114.208 17.5291L122.147 17.5392Z" fill="white"/>
<path d="M81.0127 10.5316H86.1975L89.3671 22.5418L92.8405 10.5316H96.8912L100.03 22.5418L103.372 10.5316H108.122L102.491 28.3747H97.6304L94.5924 17.1747L91.3418 28.3747H86.4203L81.0127 10.5316Z" fill="white"/>
<path d="M64.5366 22.7646H69.1645C69.3771 24.3747 70.1771 25.2962 72.3037 25.2962C74.2075 25.2962 75.0885 24.5772 75.0885 23.3519C75.0885 22.1266 74.0759 21.6101 71.4835 21.2456C66.7341 20.5266 64.9012 19.1595 64.9012 15.6759C64.9012 11.9595 68.3037 10.1165 71.9898 10.1165C75.9493 10.1165 78.9366 11.5544 79.3619 15.6557H74.7949C74.7657 15.3386 74.674 15.0305 74.5251 14.7491C74.3762 14.4676 74.173 14.2185 73.9272 14.0161C73.6815 13.8136 73.398 13.6619 73.0933 13.5696C72.7886 13.4774 72.4686 13.4464 72.1518 13.4785H71.9999C70.3999 13.4785 69.4683 14.2278 69.4683 15.3215C69.4683 16.4152 70.329 16.8911 72.9417 17.2658C77.3771 17.9342 79.8581 19.0582 79.8581 22.8759C79.8581 26.6937 77.0531 28.7392 72.3543 28.7392C67.6556 28.7392 64.6683 26.6228 64.5366 22.7646Z" fill="white"/>
<path d="M44.8711 10.5316H49.7724V13.357C50.3248 12.3199 51.1633 11.4633 52.1884 10.8889C53.2134 10.3144 54.3817 10.0463 55.5546 10.1164C59.0281 10.1164 61.5496 12.2329 61.5496 17.0633V28.4152H56.7091V17.7721C56.7091 15.3519 55.7673 14.1975 53.58 14.1975C53.1176 14.1572 52.6519 14.2087 52.2095 14.3489C51.7672 14.4891 51.3568 14.7153 51.0021 15.0145C50.6474 15.3137 50.3553 15.68 50.1425 16.0924C49.9297 16.5049 49.8005 16.9552 49.7622 17.4177C49.7369 17.633 49.7369 17.8505 49.7622 18.0658V28.3747H44.8711V10.5316Z" fill="white"/>
<path d="M35.4128 6.04557C35.395 5.55689 35.5226 5.07393 35.7795 4.65784C36.0364 4.24174 36.4109 3.91123 36.8558 3.70813C37.3006 3.50503 37.7957 3.43848 38.2783 3.51692C38.761 3.59535 39.2096 3.81524 39.5672 4.14874C39.9248 4.48224 40.1754 4.91436 40.2873 5.39038C40.3992 5.8664 40.3674 6.36493 40.1958 6.82283C40.0242 7.28074 39.7206 7.67743 39.3234 7.9627C38.9263 8.24796 38.4534 8.40896 37.9647 8.42532H37.8735C37.5702 8.44452 37.2661 8.40364 36.9786 8.30502C36.6911 8.20641 36.4259 8.05201 36.1982 7.85067C35.9705 7.64933 35.7848 7.40502 35.6518 7.13175C35.5187 6.85848 35.4409 6.56163 35.4229 6.25823C35.4145 6.18767 35.4111 6.11661 35.4128 6.04557ZM35.4128 10.5316H40.3647V28.3747H35.433L35.4128 10.5316Z" fill="white"/>
<path d="M16.7495 3.98987H32.4052V8.31392H22.2786V14.7646H30.2989V18.9266H22.2685V28.3747H16.7495V3.98987Z" fill="white"/>
<path d="M7.30127 11.9696C7.30127 13.4987 7.30127 15.362 5.19494 16.1215C7.3519 16.8608 7.30127 18.4304 7.30127 20.0709V26.1468C7.30127 27.3013 7.76709 28 8.59747 28.1722C8.77993 28.2337 8.97216 28.2612 9.16456 28.2532H11.1899V32.3038H7.8481C4.28355 32.3038 2.31899 30.2785 2.31899 26.5215V19.3316C2.29371 18.9625 2.13095 18.6163 1.86286 18.3613C1.59476 18.1064 1.24081 17.9612 0.870886 17.9544H0V14.4H0.870886C1.24819 14.395 1.60909 14.245 1.87872 13.981C2.14835 13.717 2.30601 13.3594 2.31899 12.9823V5.69114C2.31899 1.99494 4.24304 0 7.8481 0H11.2203V3.98987H9.19494C9.00231 3.99043 8.81095 4.02118 8.62785 4.08101C7.79747 4.29367 7.33165 4.98228 7.33165 6.10633L7.30127 11.9696Z" fill="white"/>
</g>
<defs>
<clipPath id="clip0_1_652">
<rect width="160" height="32.4051" fill="white"/>
</clipPath>
</defs>
</svg>
